<svg width="48" height="48" viewBox="0 0 48 48" fill="none" xmlns="http://www.w3.org/2000/svg">
  <rect width="48" height="48" rx="12" fill="#E7F9EF"/>
  <path d="M18 31.5 17 36l4.5-1c1.5.9 3.2 1.4 5 1.4 5.8 0 10.5-4.3 10.5-9.7S32.3 17 26.5 17s-10.5 4.3-10.5 9.7c0 2 .7 3.9 2 5.4Z" stroke="#15803D" stroke-width="2" stroke-linecap="round" stroke-linejoin="round"/>
  <path d="M22.5 23.5c-.5-.8-1-1-1.5-1-1 0-1.5.7-1.5 2 0 1.3.8 2.8 2.3 4.3 1.6 1.6 3.6 2.7 4.7 2.7 1.2 0 1.8-.6 2.1-1.3.3-.7.3-1.2.1-1.4-.2-.2-1.4-.8-1.7-.9s-.4-.1-.6.2-.7.9-.8 1c-.2.1-.4.1-.7-.1a8 8 0 0 1-2.5-2.1c-.2-.2-.2-.4 0-.7.2-.2.4-.5.5-.7.2-.2.2-.4.1-.6-.1-.2-.9-2.1-1.1-2.4Z" stroke="#15803D" stroke-width="1.5" stroke-linecap="round" stroke-linejoin="round"/>
</svg>










